<svg width="276" height="238" fill="none" xmlns="http://www.w3.org/2000/svg"><g filter="url(#filter0_d)"><path d="M156.478 4.425c68.101 0 106.632 49.776 106.632 111.178 0 61.401-110.109 109.964-169 109.964-58.891 0-128.81-122.715-62.778-158.715 34.5-18.81 66.747-62.427 125.146-62.427z" fill="#FFD053"/></g><g clip-path="url(#clip0)" fill="#fff"><path d="M133.041 162.397c23.435 0 42.5-19.065 42.5-42.5s-19.065-42.5-42.5-42.5-42.5 19.065-42.5 42.5 19.065 42.5 42.5 42.5zm0-81.21c21.345 0 38.71 17.365 38.71 38.71 0 21.345-17.365 38.71-38.71 38.71-21.345 0-38.71-17.365-38.71-38.71 0-21.345 17.365-38.71 38.71-38.71z"/><path d="M122.565 116.078a7.847 7.847 0 007.847-7.848 7.847 7.847 0 10-15.694-.001 7.857 7.857 0 007.847 7.849zm0-11.906a4.058 4.058 0 110 8.116 4.058 4.058 0 010-8.116zm12.629 27.868a7.848 7.848 0 1015.695 0 7.848 7.848 0 00-7.848-7.848 7.857 7.857 0 00-7.847 7.848zm11.905 0a4.058 4.058 0 11-8.115 0 4.058 4.058 0 018.115 0zm-28.487 9.98a1.895 1.895 0 002.623-.552l26.786-41.072a1.896 1.896 0 10-3.174-2.07l-26.787 41.072a1.894 1.894 0 00.552 2.622z"/></g><defs><clipPath id="clip0"><path fill="#fff" transform="translate(90.541 77.397)" d="M0 0h85v85H0z"/></clipPath><filter id="filter0_d" x=".598" y=".425" width="274.512" height="237.142" filterUnits="userSpaceOnUse" color-interpolation-filters="sRGB"><feFlood flood-opacity="0" result="BackgroundImageFix"/><feColorMatrix in="SourceAlpha" values="0 0 0 0 0 0 0 0 0 0 0 0 0 0 0 0 0 0 127 0"/><feOffset dx="4" dy="4"/><feGaussianBlur stdDeviation="4"/><feColorMatrix values="0 0 0 0 0 0 0 0 0 0 0 0 0 0 0 0 0 0 0.05 0"/><feBlend in2="BackgroundImageFix" result="effect1_dropShadow"/><feBlend in="SourceGraphic" in2="effect1_dropShadow" result="shape"/></filter></defs></svg>