<svg width="238" height="245" fill="none" xmlns="http://www.w3.org/2000/svg"><g filter="url(#filter0_d)"><path d="M225.155 126.226c0 68.101-49.776 106.632-111.178 106.632-61.402 0-109.964-110.109-109.964-169 0-58.891 156-87.062 192-21.031 18.809 34.5 29.142 25 29.142 83.399z" fill="#FFD053"/></g><g clip-path="url(#clip0)" fill="#fff"><path d="M118.971 156c-.283 0-.57-.068-.828-.204l-41.18-21.5a1.793 1.793 0 01-.963-1.588V92.396c0-.62.322-1.197.849-1.523a1.794 1.794 0 011.742-.079l41.179 20.604c.606.305.989.925.989 1.602v41.208a1.793 1.793 0 01-1.788 1.792zm-39.388-24.377l37.596 19.629v-37.145L79.583 95.295v36.328z"/><path d="M119.028 156a1.788 1.788 0 01-1.791-1.792V113c0-.677.383-1.297.989-1.602l41.179-20.604a1.777 1.777 0 011.742.079c.53.326.853.903.853 1.523v40.312c0 .667-.373 1.28-.964 1.588l-41.18 21.5a1.779 1.779 0 01-.828.204zm1.792-41.893v37.145l37.596-19.629V95.295l-37.596 18.812zm39.388 18.601h.036-.036z"/><path d="M77.79 94.188a1.792 1.792 0 01-.803-3.393l41.238-20.605a1.8 1.8 0 011.602 0l41.179 20.605a1.795 1.795 0 01.803 2.404 1.797 1.797 0 01-2.404.803l-40.377-20.207-40.435 20.203c-.258.13-.53.19-.803.19z"/><path d="M140.5 123.75a1.793 1.793 0 01-1.792-1.792v-18.601l-40.19-20.11a1.79 1.79 0 01-.8-2.404 1.798 1.798 0 012.405-.802l41.179 20.604c.606.308.989.928.989 1.605v19.708c0 .989-.802 1.792-1.791 1.792z"/></g><defs><clipPath id="clip0"><path fill="#fff" transform="translate(76 70)" d="M0 0h86v86H0z"/></clipPath><filter id="filter0_d" x=".013" y=".736" width="237.142" height="244.122" filterUnits="userSpaceOnUse" color-interpolation-filters="sRGB"><feFlood flood-opacity="0" result="BackgroundImageFix"/><feColorMatrix in="SourceAlpha" values="0 0 0 0 0 0 0 0 0 0 0 0 0 0 0 0 0 0 127 0"/><feOffset dx="4" dy="4"/><feGaussianBlur stdDeviation="4"/><feColorMatrix values="0 0 0 0 0 0 0 0 0 0 0 0 0 0 0 0 0 0 0.05 0"/><feBlend in2="BackgroundImageFix" result="effect1_dropShadow"/><feBlend in="SourceGraphic" in2="effect1_dropShadow" result="shape"/></filter></defs></svg>