<svg width="265" height="261" fill="none" xmlns="http://www.w3.org/2000/svg"><g filter="url(#filter0_d)"><path d="M252.142 142.368c0 58.891-49.776 106.632-111.178 106.632C79.563 249 4 164.023 4 105.131 4 46.24 140.858 4 202.26 4c61.402 0 49.882 79.477 49.882 138.368z" fill="#FFD053"/></g><path d="M168.719 143.858a39.536 39.536 0 0013.784-44.126 39.533 39.533 0 00-75.006 0 39.536 39.536 0 0013.784 44.126l-20.47 20.453a1.714 1.714 0 00-.327 1.959 1.721 1.721 0 001.719.963l13.578-1.496v11.825a1.716 1.716 0 001.066 1.582c.204.096.427.143.653.137a1.719 1.719 0 001.22-.498L145 152.486l26.28 26.297a1.727 1.727 0 001.22.498c.225.006.449-.041.653-.137a1.716 1.716 0 001.066-1.582v-11.825l13.561 1.496a1.723 1.723 0 001.718-.963 1.72 1.72 0 00-.326-1.959l-20.453-20.453zm-59.813-31.608a36.093 36.093 0 1172.186 0 36.093 36.093 0 01-72.186 0zm9.746 50.273a1.723 1.723 0 00-1.341-.412l-10.605 1.169 17.463-17.463a38.885 38.885 0 0016.878 5.758l-21.828 21.845v-9.608a1.713 1.713 0 00-.567-1.289zm54.037-.429a1.708 1.708 0 00-1.341.412 1.734 1.734 0 00-.567 1.306v9.608l-21.828-21.845a38.885 38.885 0 0016.878-5.758l17.463 17.463-10.605-1.186z" fill="#fff"/><path d="M177.656 112.25a32.658 32.658 0 00-39.027-32.029 32.653 32.653 0 00-25.658 25.658 32.654 32.654 0 0013.886 33.524 32.658 32.658 0 0050.799-27.153zm-60.586-8.594h17.618a1.71 1.71 0 001.22-.498l6.875-6.875a1.716 1.716 0 00.498-1.22v-5.157a3.438 3.438 0 013.438 3.438v8.594a1.72 1.72 0 001.719 1.718h15.468v3.438h-13.75v3.437h13.75v3.438h-13.75v3.437h13.75v3.438h-13.75v3.437h13.75V126a1.718 1.718 0 01-1.718 1.719h-20.213l-6.514-3.249a1.733 1.733 0 00-.773-.189h-16.277a28.765 28.765 0 01-2.63-12.031 29.557 29.557 0 011.289-8.594zm3.18 24.063h14.025l6.514 3.248c.24.123.504.188.774.189h20.625a5.157 5.157 0 005.156-5.156v-24.062a1.719 1.719 0 00-1.719-1.719h-15.469v-6.875a6.876 6.876 0 00-6.875-6.875h-1.718a1.72 1.72 0 00-1.719 1.719v6.17l-5.861 5.861h-15.572a29.219 29.219 0 111.839 27.5zm-14.781-37.813a1.714 1.714 0 001.414-.654 1.716 1.716 0 00.304-1.529l-1.46-4.932 2.475-1.805a1.724 1.724 0 00.67-1.719 1.716 1.716 0 00-1.272-1.392l-4.005-.963-1.718-3.282a1.726 1.726 0 00-1.513-.903 1.72 1.72 0 00-1.513.903l-1.718 3.282-4.108.963a1.718 1.718 0 00-1.306 1.392 1.719 1.719 0 00.67 1.719l2.51 1.805-1.462 4.932a1.718 1.718 0 00.67 1.874 1.72 1.72 0 001.995 0l4.21-3.128 4.143 3.042c.286.238.642.377 1.014.395zm-2.733-9.178a1.72 1.72 0 00-.705 1.856l.361 1.272-1.065-.825a1.722 1.722 0 00-2.029 0l-1.134.825.43-1.272a1.718 1.718 0 00-.636-1.856l-.567-.36 1.203-.31a1.718 1.718 0 001.083-.842l.635-1.135.619 1.135a1.715 1.715 0 001.1.842l1.221.31-.516.36zm95.545-1.461a1.716 1.716 0 00-1.306-1.392l-4.005-1.014-1.718-3.283a1.726 1.726 0 00-1.513-.902 1.722 1.722 0 00-1.512.902l-1.719 3.283-4.108 1.014a1.714 1.714 0 00-1.272 1.34 1.718 1.718 0 00.67 1.72l2.475 1.804-1.46 4.984a1.715 1.715 0 00.67 1.874 1.718 1.718 0 001.994 0l4.211-3.128 4.142 3.042c.286.238.642.377 1.014.395a1.716 1.716 0 001.414-.654 1.716 1.716 0 00.305-1.529l-1.393-4.932 2.475-1.805a1.714 1.714 0 00.636-1.719zm-6.136 1.461a1.723 1.723 0 00-.739 1.856l.361 1.272-1.065-.825a1.721 1.721 0 00-2.029 0l-1.134.825.43-1.272a1.725 1.725 0 00-.636-1.856l-.499-.36 1.135-.31a1.72 1.72 0 001.083-.842l.636-1.135.618 1.135a1.724 1.724 0 001.083.842l1.22.31-.464.36z" fill="#fff"/><defs><filter id="filter0_d" x="0" y="0" width="265" height="261" filterUnits="userSpaceOnUse" color-interpolation-filters="sRGB"><feFlood flood-opacity="0" result="BackgroundImageFix"/><feColorMatrix in="SourceAlpha" values="0 0 0 0 0 0 0 0 0 0 0 0 0 0 0 0 0 0 127 0"/><feOffset dx="4" dy="4"/><feGaussianBlur stdDeviation="4"/><feColorMatrix values="0 0 0 0 0 0 0 0 0 0 0 0 0 0 0 0 0 0 0.05 0"/><feBlend in2="BackgroundImageFix" result="effect1_dropShadow"/><feBlend in="SourceGraphic" in2="effect1_dropShadow" result="shape"/></filter></defs></svg>