<svg width="1500" height="1652" fill="none" xmlns="http://www.w3.org/2000/svg"><path fill="#FFD053" d="M-111.075 550h1837.95v609h-1837.95z"/><path d="M1647.51 782H10.829s-275.131-226.407-96.565-477.7C17.722 158.704 315.544-95.56 444.004 48.047c128.46 143.607 408.918-125.77 495.915 22.623 87.001 148.393 597.351-183.424 707.591-28.279 178.57 251.293 0 739.609 0 739.609zM-9.812 903.076H1626.8s388.86-105.711 210.3 180.564c-103.45 165.86-396.11 706.22-555.51 534.29-159.4-171.93-706.239 103.57-825.165-20.43-118.927-124-384.72 139.74-494.959-37-178.558-286.27 28.722-657.424 28.722-657.424z" fill="#FFD053"/></svg>