<svg width="1500" height="784" fill="none" xmlns="http://www.w3.org/2000/svg"><path d="M1486.28 585H-13.307s-252.085-169.371-88.476-357.359C-6.991 118.724 265.885-71.487 383.585 35.943c117.7 107.43 374.666-94.086 454.376 16.924 79.711 111.01 547.319-137.216 648.319-21.155 163.61 187.988 0 553.288 0 553.288z" fill="#FFD053"/><path d="M-58.666 169.638H1821.52s446.73-86.659 241.6 148.021C1944.27 453.628 1637.94 944.151 1455.5 670.5c-182.44-273.651-845.58 264.81-978.54 68.405C344 542.5 34.983 853.461-91.663 708.573c-205.133-234.679 32.997-538.935 32.997-538.935z" fill="#FFD053"/></svg>