<svg width="1500" height="713" fill="none" xmlns="http://www.w3.org/2000/svg"><path fill="#63D6F9" d="M-103 93h1920v532H-103z"/><path d="M1632.03 542.38H114.009s-220.641-15.163-164.662 55.026c64.817 81.271 455.779 123.864 664.075 84.229 208.297-39.635 460.798 78.456 691.918 7.161 231.12-71.296 251.08 26.697 353.33-9.982 165.62-59.41-26.64-136.434-26.64-136.434zM75.715 157.574H1562.81s353.34 18.985 191.09-32.427c-94-29.788-251.34-149.976-504.76-95.953-253.416 54.023-498.554-78.508-757.195-7.672-258.642 70.836-407.578-31.741-507.746 0-162.246 51.412 91.516 136.052 91.516 136.052z" fill="#63D6F9"/></svg>